<svg xmlns="http://www.w3.org/2000/svg" viewBox="0 0 51.01 42.52"><title>logo_celsia_1</title><g id="Capa_2" data-name="Capa 2"><g id="Capa_1-2" data-name="Capa 1"><path d="M5.29,40.84A3.17,3.17,0,0,1,2,37.42a3.22,3.22,0,0,1,3.22-3.5,4,4,0,0,1,2.09.51l.13-1.63a6.27,6.27,0,0,0-2.18-.4C2,32.41,0,34.26,0,37.56s2.18,4.81,5.29,4.81a10.9,10.9,0,0,0,2.2-.31L7.4,40.44a5.29,5.29,0,0,1-2.11.4m41-8.43h-.1l-4.75,9.85h1.83l1-2.27h3.68l1,2.27H51Zm-1.49,6.41,1.32-3,1.33,3Zm-13-2.33c-1.25-.54-2-.79-2-1.6s.61-1.16,1.53-1.16a4,4,0,0,1,2.48.82V32.88a7.22,7.22,0,0,0-2.42-.43c-2.09,0-3.49,1-3.47,2.68A2.37,2.37,0,0,0,28.75,37a6.35,6.35,0,0,0,1.85,1c1.45.63,2,1,2,1.79s-.75,1.45-1.79,1.45a6.39,6.39,0,0,1-2.8-.81v1.74a9.86,9.86,0,0,0,2.62.37c2.37,0,3.83-1.12,3.81-3,0-1.47-.82-2.2-2.72-3M21.84,32.4H19.92v9.87h5.67v-1.5H21.84Zm15.43,9.86h1.92V32.41H37.27Zm-26.54,0h5.79V40.73H12.69V37.94H16.2V36.4H12.69V34h3.83V32.42H10.73ZM22.44,26.1,12.24,11.36a13.6,13.6,0,0,0-.12,1.7,13.41,13.41,0,0,0,10.32,13m2.64.35L22.51,0a13.39,13.39,0,0,0-7.07,4.24l8.61,22.15c.34,0,.68.05,1,.06M38.81,11.36,28.61,26.1a13.41,13.41,0,0,0,10.32-13,13.6,13.6,0,0,0-.12-1.7M28.54,0,26,26.45c.35,0,.69,0,1-.06L35.61,4.24A13.35,13.35,0,0,0,28.54,0" fill="#ef7826"/></g></g></svg>